<?xml version="1.0" encoding="UTF-8" standalone="no"?>
<svg
   xmlns:osb="http://www.openswatchbook.org/uri/2009/osb"
   xmlns:dc="http://purl.org/dc/elements/1.1/"
   xmlns:cc="http://creativecommons.org/ns#"
   xmlns:rdf="http://www.w3.org/1999/02/22-rdf-syntax-ns#"
   xmlns:svg="http://www.w3.org/2000/svg"
   xmlns="http://www.w3.org/2000/svg"
   width="530.66144mm"
   height="918.32153mm"
   viewBox="0 0 530.66144 918.32153"
   version="1.1"
   id="svg8">
  <defs
     id="defs2">
    <linearGradient
       id="linearGradient1019"
       osb:paint="solid">
      <stop
         style="stop-color:#a60000;stop-opacity:1;"
         offset="0"
         id="stop1017" />
    </linearGradient>
  </defs>
  <metadata
     id="metadata5">
    <rdf:RDF>
      <cc:Work
         rdf:about="">
        <dc:format>image/svg+xml</dc:format>
        <dc:type
           rdf:resource="http://purl.org/dc/dcmitype/StillImage" />
        <dc:title></dc:title>
      </cc:Work>
    </rdf:RDF>
  </metadata>
  <g
     id="layer2"
     style="display:inline"
     transform="translate(978.03506,1296.9698)">
    <path
       style="display:inline;opacity:1;fill:#a60000;fill-opacity:1;stroke:#000000;stroke-width:4;stroke-linecap:butt;stroke-linejoin:miter;stroke-miterlimit:4;stroke-dasharray:none;stroke-opacity:1"
       d="m -702.37645,-1295.1792 c 0,0 -26.83547,13.3511 -37.11616,22.4458 -27.07855,23.9549 -35.32471,57.1273 -36.71267,85.1427 -0.40351,8.1446 0.15909,14.4311 0.8293,20.3795 2.898,25.7214 6.34057,38.1664 8.88934,53.5539 4.83899,29.2141 -2.13594,67.5044 -13.73709,86.7678 -10.11301,16.7924 -21.21289,33.00655 -56.08501,71.18872 -22.14297,24.24477 -36.76807,39.65497 -54.04991,60.71774 -34.06675,41.51988 -55.67825,87.10805 -54.00229,170.17569 1.51345,75.01273 42.15412,130.0119 78.03744,163.23477 23.5909,21.84182 45.94879,34.42607 50.87991,36.55275 11.34181,4.89148 21.73639,8.38707 36.07309,11.05191 6.47742,1.20398 18.60098,2.73567 30.50004,3.69361 89.46281,7.20227 165.48099,-30.78819 181.5158,-116.44257 9.76163,-52.1444 10.72954,-58.48471 -6.17211,-86.0209 -29.77257,-48.50549 -6.51942,-55.62274 -6.51222,-64.06832 0,0 -35.55375,30.8793 -30.0991,70.04282 9.79859,70.35231 -43.43698,117.3019 -54.56236,119.3332 -9.65604,1.76302 -7.32743,9.44274 -4.08623,-3.05469 1.84584,-7.1172 3.24845,-22.18242 -0.88166,-47.39577 -2.36079,-14.41209 -29.60595,-38.71087 -29.60595,-38.71087 -69.87334,-42.0849 -96.46768,-66.19029 -84.77602,-126.51118 0.44471,-2.29438 6.70443,-17.10659 9.03932,-25.25729 1.67169,-5.83558 1.33152,-8.25646 -4.59506,-0.2238 -42.12368,57.09285 -32.36448,111.70279 -32.36448,111.70279 0,0 2.54813,39.6087 21.66833,54.25485 30.50666,23.36822 54.21091,38.14346 50.46548,66.50789 -0.38326,2.90242 -36.72475,59.98546 -125.83866,-50.05411 -53.31326,-65.83224 -30.45376,-154.92499 -28.24348,-176.25454 2.85689,-27.56941 5.48038,18.50146 5.48038,18.50146 2.01713,23.944 2.61782,47.93826 23.42909,93.53192 0,0 14.17309,20.54387 13.4367,-6.81206 -0.73639,-27.35593 57.48049,-115.38908 106.57077,-151.66867 54.56884,-40.32846 75.95471,-69.98707 75.42028,-134.83875 -0.54633,-66.2955 -45.14125,-97.8182 -62.61583,-141.1824 -4.62785,-11.4843 -7.61908,-20.5568 -9.72873,-32.1891 -4.51491,-24.8946 -0.66327,-45.0107 5.37888,-62.687 11.74776,-34.368 34.17087,-55.4078 34.17087,-55.4078 z"
       id="path4948" />
    <path
       style="display:inline;fill:#bda600;fill-opacity:1;stroke:#000000;stroke-width:4;stroke-linecap:butt;stroke-linejoin:miter;stroke-miterlimit:4;stroke-dasharray:none;stroke-opacity:1"
       d="m -733.28693,-1248.2585 c -6.31069,17.4937 -11.44079,56.5019 -4.1324,80.1872 14.37101,58.4169 63.58626,72.3633 97.28683,105.1932 17.87869,17.4168 37.42815,49.3866 39.43082,80.13441 2.7448,42.14203 -58.09597,113.59409 -80.98485,145.70866 -13.21007,18.53459 -16.85765,42.71271 -13.04263,57.818 3.91395,15.497 8.42393,23.34445 18.40098,33.18926 9.31924,9.19569 19.14132,11.63819 28.86497,10.96421 9.16178,-0.63504 -22.23388,-66.66072 15.37734,-115.4185 25.57071,-33.14891 54.02255,-49.50939 70.69725,-63.9935 22.00576,-19.11482 28.29462,-32.32253 27.82361,-50.42225 0,0 30.45499,28.74017 6.37653,77.73601 -8.07479,16.43089 -25.55842,38.4761 -28.55252,50.46809 -2.25507,9.03202 -2.03115,17.01007 -1.03909,23.17825 1.3224,8.22212 4.0097,13.22837 4.0097,13.22837 0,0 5.78112,-9.25254 11.16919,-15.72721 6.44488,-7.7446 12.88652,-13.11433 15.7975,-15.65765 13.02198,-11.37732 38.11449,-16.72582 52.64802,-16.24486 16.97357,0.5617 22.49172,8.08087 22.49172,8.08087 -74.58864,22.31757 -64.37629,99.18738 -64.11607,103.26033 2.9284,45.83441 9.67116,62.20124 -20.83188,118.73283 -8.83998,16.38321 -24.72925,34.11742 -29.76141,39.83572 -2.66796,3.03174 -11.1444,12.94804 -26.43445,25.45306 -12.04745,9.85305 -21.0231,14.4898 -33.15436,20.1343 -19.98377,9.29816 -49.40513,18.0813 -60.51162,19.12519 0,0 29.68119,-3.79175 49.6654,-17.36846 35.42498,-24.06675 45.00603,-46.27292 52.8792,-64.92251 14.11803,-33.44213 15.26898,-69.25784 10.66131,-90.06372 -6.20452,-28.01644 -26.92661,-62.91223 -10.75808,-84.3175 0,0 -13.03562,7.9529 -22.17511,31.65331 -8.52622,22.11008 -0.38037,36.48224 -2.34981,64.3965 -1.88959,26.78254 -9.79812,43.91874 -21.67947,61.88374 -3.25738,4.92527 -13.78095,17.57112 -19.47133,22.9511 -12.19827,11.53288 -34.0185,21.75279 -34.0185,21.75279 3.29011,-5.61937 5.96711,-8.73817 11.37315,-22.98725 6.90902,-23.0478 2.33205,-41.41722 -10.15891,-63.1184 -25.24236,-40.01131 -83.46977,-42.94824 -101.15959,-94.1693 -3.66639,-10.61608 -7.50048,-57.35864 8.0811,-82.27305 4.21767,-6.74391 -23.08722,20.8299 -34.30546,59.58594 -6.51208,22.49752 -7.66935,83.24299 34.92079,118.132 11.40376,9.34174 34.8214,21.58805 35.0643,51.10622 0.14059,17.08496 -20.96654,25.57992 -43.52844,21.14746 -47.66995,-9.36512 -99.56301,-62.03468 -113.32694,-121.11929 -12.73681,-54.67548 -10.31996,-109.6268 9.19797,-143.72927 1.42537,-2.49047 -0.85594,15.56256 0.35372,47.78806 0.88101,23.47024 4.77819,35.76866 10.06209,51.87478 4.66585,14.22219 22.12638,48.16053 24.09552,43.65835 0,0 -5.54383,-25.66 -5.19128,-49.13005 0.15041,-10.01352 1.59045,-22.27189 2.66185,-29.7215 1.14896,-7.98885 6.56357,-29.03373 21.88651,-49.87391 19.92339,-27.09708 39.21859,-40.51722 54.2162,-50.6704 21.29358,-14.41546 36.55173,-20.49236 55.25338,-34.69597 31.75306,-24.11595 51.12372,-57.8578 53.84221,-87.00386 5.30306,-56.8563 -53.63423,-85.3864 -71.35761,-140.2373 -15.17079,-51.1833 -1.76347,-81.3538 7.45265,-105.4925 z"
       id="path4958" />
    <path
       style="display:inline;fill:#a60000;fill-opacity:1;stroke:#000000;stroke-width:4;stroke-linecap:butt;stroke-linejoin:miter;stroke-miterlimit:4;stroke-dasharray:none;stroke-opacity:1"
       d="m -510.05273,-1060.7111 c 4.10817,10.6295 6.93205,16.085 4.1783,27.881 -6.27327,17.4352 -11.87469,25.3298 -11.96245,41.57331 -0.10237,5.4496 -0.29205,10.87319 5.56278,18.098 2.19487,2.72183 7.53607,8.82901 11.2987,17.59733 4.29264,7.71587 3.98513,13.12822 4.64303,18.31967 4.5487,-6.27023 8.24001,-13.31789 11.71652,-20.56034 2.43923,-8.15896 5.03107,-15.18477 6.56299,-30.08098 -0.0535,-9.31008 0.45447,-15.27699 -2.42583,-31.68569 -1.31761,-8.8504 -4.56803,-16.7795 -12.30858,-26.6586 0,0 -8.9679,-8.7449 -17.26546,-14.4837 z"
       id="path896" />
    <path
       style="display:inline;fill:#bda600;fill-opacity:1;stroke:#000000;stroke-width:4;stroke-linecap:butt;stroke-linejoin:miter;stroke-miterlimit:4;stroke-dasharray:none;stroke-opacity:1"
       d="m -788.88769,-1043.1849 c -0.48349,-45.6525 -39.42534,-57.6881 -54.64762,-70.5307 -19.15681,-17.1599 -29.58868,-37.0161 -27.68586,-75.6656 2.52125,-23.7277 8.92026,-43.1585 19.40901,-58.0576 -9.9125,46.2175 -5.28603,60.3648 -0.83604,74.7489 7.48118,20.3044 20.371,34.4805 35.21043,42.1701 16.25546,6.6984 23.02456,10.5012 29.06075,16.1844 8.00595,7.167 10.11991,21.5314 9.50144,32.1044 -1.43699,19.9777 -5.24378,28.0575 -10.01211,39.0461 z"
       id="path934" />
    <path
       style="fill:#bda600;fill-opacity:1;stroke:#000000;stroke-width:4;stroke-linecap:butt;stroke-linejoin:miter;stroke-miterlimit:4;stroke-dasharray:none;stroke-opacity:1"
       d="m -859.11051,-972.02397 c 24.95941,-16.78713 37.46831,-34.80843 38.18413,-51.45923 0.8989,-20.9092 -8.92851,-41.2858 -23.48423,-52.9623 -7.42357,-5.9551 -22.82518,-15.8983 -27.95036,-20.5591 -17.94695,-16.3208 -18.04102,-31.9391 -18.04102,-31.9391 0,0 -5.16887,11.2113 -4.41002,25.9087 0.87684,16.9824 0.24089,26.2041 18.72481,45.0062 7.46711,7.5956 15.0215,13.7119 20.03354,20.1207 7.39466,9.4555 10.66647,18.3282 11.47164,23.5794 1.02277,6.6703 1.36682,14.67757 -3.47155,23.84502 -5.99154,11.35241 -11.05694,18.45971 -11.05694,18.45971 z"
       id="path951" />
    <path
       style="display:inline;fill:#a60000;fill-opacity:1;stroke:#000000;stroke-width:4;stroke-linecap:butt;stroke-linejoin:miter;stroke-miterlimit:4;stroke-dasharray:none;stroke-opacity:1"
       d="m -975.94358,-469.82068 17.21006,-206.2243 c 8.32383,38.3968 24.56561,75.90093 44.78721,95.68732 l 2.64504,49.26184 22.31882,-16.45306 c 10.48263,10.49008 22.43347,17.21754 34.13298,24.58875 l -12.06548,112.08516 -24.55305,-11.46003 11.56882,-83.46385 -42.59362,39.91531 -12.42425,-68.35166 -18.73598,79.19693 z"
       id="path957" />
    <path
       style="display:inline;fill:#a60000;fill-opacity:1;stroke:#000000;stroke-width:4;stroke-linecap:butt;stroke-linejoin:miter;stroke-miterlimit:4;stroke-dasharray:none;stroke-opacity:1"
       d="m -852.41392,-405.27432 18.42194,-56.28294 49.08423,12.27397 -1.4671,63.15343 -20.76136,-4.48374 1.5934,-38.2785 -12.34452,-3.66627 -10.12074,37.36171 z"
       id="path983" />
    <path
       style="fill:#a60000;fill-opacity:1;stroke:#000000;stroke-width:4;stroke-linecap:butt;stroke-linejoin:miter;stroke-miterlimit:4;stroke-dasharray:none;stroke-opacity:1"
       d="m -833.99198,-461.55726 19.94411,5.07003 4.98983,-21.68872 7.16271,2.38562 -1.66408,21.69407 18.65168,4.81297 2.31675,-40.96333 c -14.67525,-2.84015 -40.26203,-12.17875 -40.26203,-12.17875 l -11.13897,40.86811"
       id="path1025" />
    <path
       style="fill:none;stroke:#a60000;stroke-width:11.1905;stroke-linecap:butt;stroke-linejoin:miter;stroke-miterlimit:4;stroke-dasharray:none;stroke-opacity:1"
       d="m -825.01701,-465.27866 -3.79458,12.8353"
       id="path1031" />
    <path
       style="fill:none;stroke:#a60000;stroke-width:11.1745;stroke-linecap:butt;stroke-linejoin:miter;stroke-miterlimit:4;stroke-dasharray:none;stroke-opacity:1"
       d="m -820.40829,-462.73048 -2.46446,10.36762"
       id="path1033" />
    <path
       style="fill:none;stroke:#a60000;stroke-width:8;stroke-linecap:butt;stroke-linejoin:miter;stroke-miterlimit:4;stroke-dasharray:none;stroke-opacity:1"
       d="m -796.55848,-461.92416 c -0.29164,5.46017 -2.6494,11.39179 -0.0827,16.19975"
       id="path1037" />
    <path
       style="fill:none;stroke:#a60000;stroke-width:8;stroke-linecap:butt;stroke-linejoin:miter;stroke-miterlimit:4;stroke-dasharray:none;stroke-opacity:1"
       d="m -790.52789,-459.49437 -0.56221,16.1868"
       id="path1039" />
    <path
       style="fill:none;stroke:#000000;stroke-width:2.74443;stroke-linecap:butt;stroke-linejoin:miter;stroke-miterlimit:4;stroke-dasharray:none;stroke-opacity:1"
       d="m -835.40122,-457.62609 3.10236,-8.9878"
       id="path1041" />
    <path
       style="fill:#a60000;fill-opacity:1;stroke:#000000;stroke-width:4;stroke-linecap:butt;stroke-linejoin:miter;stroke-miterlimit:4;stroke-dasharray:none;stroke-opacity:1"
       d="m -769.99757,-383.02032 8.16146,-106.4798 22.56432,1.48781 23.14147,52.90095 1.00672,-51.39097 20.3369,-1.95533 0.6403,106.65663 -23.19959,0.55272 -23.71227,-48.16706 -2.44067,48.60241 z"
       id="path1043" />
    <path
       style="display:inline;fill:#a60000;fill-opacity:1;stroke:#000000;stroke-width:4;stroke-linecap:butt;stroke-linejoin:miter;stroke-miterlimit:4;stroke-dasharray:none;stroke-opacity:1"
       d="m -676.00904,-491.62545 1.06318,25.38797 15.31025,-4.33704 1.54066,87.54034 c 7.60969,-0.98482 15.4985,-3.33105 24.29603,-6.73946 l -4.87235,-85.15316 15.55743,-4.88683 -3.61668,-26.46828 -49.27852,14.65646 0.87299,20.58359"
       id="path1045" />
    <path
       id="path1047"
       style="display:inline;fill:#a60000;fill-opacity:1;stroke:#000000;stroke-width:4;stroke-linecap:butt;stroke-linejoin:miter;stroke-miterlimit:4;stroke-dasharray:none;stroke-opacity:1"
       d="m -569.30356,-536.7773 c -0.53162,-0.11633 -2.57919,-0.2518 -3.85578,0.69147 -11.49357,8.49224 -17.11769,12.08712 -35.52043,23.3252 l 7.67381,111.82647 20.90404,-9.84183 -3.71482,-43.30561 24.77966,34.27185 16.10177,-9.42765 -29.02077,-40.24761 c 5.06695,-4.10739 9.1535,-11.7261 10.25054,-15.41843 1.34708,-3.44487 2.52795,-17.41711 1.81355,-22.67406 -0.61351,-6.42755 -4.44709,-20.36307 -7.32068,-27.24367 -0.94854,-2.27122 -2.09089,-1.95613 -2.09089,-1.95613 z m -7.21014,25.38235 c 0,0 0.63059,-0.20139 0.81266,0.49391 0.6894,2.6327 2.23337,9.31092 1.21977,12.92636 -1.324,3.84321 -1.86549,5.25203 -4.8878,7.81974 -3.78757,3.18465 -4.47001,4.02574 -8.4732,4.95358 l -2.74889,-17.91301 c 6.31638,-3.12443 9.16822,-4.6272 13.70126,-8.19103 0.28757,-0.22608 0.0738,0.15407 0.3762,-0.0895 z" />
    <path
       id="path1098"
       style="fill:#a60000;fill-opacity:1;stroke:#000000;stroke-width:4;stroke-linecap:butt;stroke-linejoin:miter;stroke-miterlimit:4;stroke-dasharray:none;stroke-opacity:1"
       d="m -505.9127,-616.73148 c -0.19548,-0.32199 -1.363,2.3976 -1.88445,3.44634 -10.87232,21.86632 -23.10306,41.85171 -40.07328,57.97504 l 18.44378,118.83828 19.35339,-14.20858 -10.50537,-57.71608 11.67463,-9.02504 15.0598,55.25524 13.82597,-12.64188 -24.54491,-136.42254 c -0.32464,-1.81405 -1.15228,-5.18125 -1.34956,-5.50078 z m -15.54533,55.99788 7.24097,26.70903 -10.26026,7.13496 -4.02534,-26.2791 z m 0,0 6.67359,24.03226 z" />
  </g>
</svg>
