<?xml version="1.0" encoding="UTF-8" standalone="no"?>
<svg
   xmlns:dc="http://purl.org/dc/elements/1.1/"
   xmlns:cc="http://creativecommons.org/ns#"
   xmlns:rdf="http://www.w3.org/1999/02/22-rdf-syntax-ns#"
   xmlns:svg="http://www.w3.org/2000/svg"
   xmlns="http://www.w3.org/2000/svg"
   xmlns:sodipodi="http://sodipodi.sourceforge.net/DTD/sodipodi-0.dtd"
   xmlns:inkscape="http://www.inkscape.org/namespaces/inkscape"
   width="92.828735mm"
   height="105.26637mm"
   viewBox="0 0 92.828735 105.26637"
   version="1.1"
   id="svg8"
   sodipodi:docname="site.svg"
   inkscape:version="1.0.1 (3bc2e813f5, 2020-09-07)">
  <defs
     id="defs2" />
  <sodipodi:namedview
     id="base"
     pagecolor="#ffffff"
     bordercolor="#666666"
     borderopacity="1.0"
     inkscape:pageopacity="0.0"
     inkscape:pageshadow="2"
     inkscape:zoom="1.4"
     inkscape:cx="163.69423"
     inkscape:cy="181.99409"
     inkscape:document-units="mm"
     inkscape:current-layer="layer1"
     inkscape:document-rotation="0"
     showgrid="false"
     inkscape:window-width="1442"
     inkscape:window-height="986"
     inkscape:window-x="0"
     inkscape:window-y="25"
     inkscape:window-maximized="0" />
  <metadata
     id="metadata5">
    <rdf:RDF>
      <cc:Work
         rdf:about="">
        <dc:format>image/svg+xml</dc:format>
        <dc:type
           rdf:resource="http://purl.org/dc/dcmitype/StillImage" />
      </cc:Work>
    </rdf:RDF>
  </metadata>
  <g
     inkscape:label="Layer 1"
     inkscape:groupmode="layer"
     id="layer1"
     transform="translate(-22.701243,-58.798562)">
    <path
       style="fill:#502718;fill-opacity:1;stroke:#000000;stroke-width:0.281706px;stroke-linecap:butt;stroke-linejoin:miter;stroke-opacity:1"
       d="m 24.656804,72.053113 89.291036,-1.166565 0.46665,92.644162 -90.609641,0.75834 z"
       id="path2102" />
    <path
       style="fill:#6ba7ff;fill-opacity:1;stroke:none;stroke-width:0.262035px;stroke-linecap:butt;stroke-linejoin:miter;stroke-opacity:1"
       d="m 24.648329,71.906726 89.308061,-1.028863 5.2e-4,-10.983195 -89.11339,1.117548 z"
       id="path837"
       sodipodi:nodetypes="ccccc" />
    <path
       style="fill:none;stroke:#80b4ff;stroke-width:2.165;stroke-linecap:butt;stroke-linejoin:miter;stroke-miterlimit:4;stroke-dasharray:none;stroke-opacity:1"
       d="m 24.844898,61.013382 -1.048686,92.241658 90.626918,-0.66882 -0.46622,-92.691552 z"
       id="path833" />
    <path
       style="fill:#6ba7ff;fill-opacity:1;stroke:none;stroke-width:0.174736;stroke-linecap:butt;stroke-linejoin:miter;stroke-miterlimit:4;stroke-dasharray:none;stroke-opacity:1"
       d="m 75.198179,163.56184 40.331801,0.0998 -3.5e-4,-10.05167 -40.351962,0.32732 z"
       id="path835"
       sodipodi:nodetypes="ccccc" />
    <path
       style="fill:#6ba7ff;fill-opacity:1;stroke:none;stroke-width:0.174018;stroke-linecap:butt;stroke-linejoin:miter;stroke-miterlimit:4;stroke-dasharray:none;stroke-opacity:1"
       d="m 22.733508,163.96513 40.00112,0.0998 -3.49e-4,-10.05167 -40.021114,0.32732 z"
       id="path852"
       sodipodi:nodetypes="ccccc" />
  </g>
  <g
     inkscape:groupmode="layer"
     id="layer2"
     inkscape:label="Layer 2"
     transform="translate(-22.701243,-58.798562)">
    <path
       style="fill:#aea7ac;fill-opacity:1;stroke:#000000;stroke-width:0.264583px;stroke-linecap:butt;stroke-linejoin:miter;stroke-opacity:1"
       d="m 39.009084,100.86053 0.09529,2.84572 2.79459,2.73477 -0.149643,11.4233 -2.998319,3.40226 -0.160708,4.53061 2.56522,-0.0658 0.2961,-2.60714 1.515113,-1.22759 1.694005,1.38583 -0.122221,1.98983 2.21956,0.14249 -0.05172,-2.90039 -2.558283,-3.7669 0.222774,-12.34514 3.352265,-1.90903 0.0494,-3.27696 -1.881343,-0.11671 -0.08218,2.78312 -1.911672,1.07054 -2.957899,-2.18067 0.169182,-2.1907 z"
       id="path840" />
    <path
       style="fill:#aea7ac;fill-opacity:1;stroke:#000000;stroke-width:0.239977px;stroke-linecap:butt;stroke-linejoin:miter;stroke-opacity:1"
       d="m 62.919508,100.10395 -0.865934,2.43302 1.448732,3.23703 -3.925083,9.58963 -3.66151,1.87387 -1.642262,3.76965 2.186508,0.79754 1.116863,-2.10153 1.686741,-0.53204 0.968606,1.73275 -0.76485,1.63845 1.82556,0.85835 0.920879,-2.46465 -0.906093,-4.02941 4.293351,-10.34319 3.46361,-0.49612 1.131437,-2.74879 -1.548734,-0.72413 -0.994871,2.32118 -1.969146,0.26763 -1.770803,-2.82378 0.871277,-1.79233 z"
       id="path842" />
    <path
       style="fill:#aea7ac;fill-opacity:1;stroke:#000000;stroke-width:0.203035px;stroke-linecap:butt;stroke-linejoin:miter;stroke-opacity:1"
       d="m 77.398774,104.59527 1.459689,1.62583 2.991736,0.22916 5.546688,6.78893 -0.08434,3.47895 2.1403,2.74257 1.475516,-1.30397 -1.11194,-1.67866 0.285129,-1.46897 1.679386,-0.0209 0.909656,1.23 1.375039,-1.01106 -1.46105,-1.67946 -3.361929,-0.95244 -5.958409,-7.36692 1.028962,-2.77575 -1.587347,-1.9507 -1.163505,0.85938 1.32449,1.67657 -0.595713,1.57226 -2.814416,0.17713 -0.981132,-1.37125 z"
       id="path844" />
    <path
       style="fill:#aea7ac;fill-opacity:1;stroke:#000000;stroke-width:0.277812px;stroke-linecap:butt;stroke-linejoin:miter;stroke-opacity:1"
       d="m 45.442521,114.79799 1.997299,2.22464 4.09359,0.31356 7.589528,9.28929 -0.11541,4.76024 2.928566,3.75264 2.018916,-1.78425 -1.521463,-2.2969 0.390143,-2.00999 2.297902,-0.0287 1.244681,1.68301 1.881467,-1.38343 -1.999153,-2.29801 -4.600129,-1.30324 -8.15288,-10.08014 1.407927,-3.79804 -2.171974,-2.66916 -1.592023,1.1759 1.812302,2.29405 -0.815111,2.15132 -3.850969,0.24235 -1.342482,-1.87626 z"
       id="path846" />
    <path
       style="fill:#aea7ac;fill-opacity:1;stroke:#000000;stroke-width:0.251976px;stroke-linecap:butt;stroke-linejoin:miter;stroke-opacity:1"
       d="m 64.164154,98.051655 0.945601,2.541435 3.350041,1.6259 3.315173,10.36254 -1.680398,3.97849 1.22329,4.14051 2.296993,-0.83424 -0.520035,-2.44416 0.997637,-1.56637 1.948574,0.73999 0.490629,1.83411 2.047707,-0.54172 -0.922753,-2.60395 -3.44837,-2.6295 -3.527556,-11.2172 2.451098,-2.73674 -0.945165,-2.974617 -1.734454,0.46283 0.766407,2.538499 -1.403245,1.544298 -3.330185,-1.076137 -0.508884,-2.029702 z"
       id="path848" />
    <path
       style="fill:#aea7ac;fill-opacity:1;stroke:#000000;stroke-width:0.213187px;stroke-linecap:butt;stroke-linejoin:miter;stroke-opacity:1"
       d="m 78.841817,91.891786 2.271413,0.322547 2.561058,-1.834879 9.043493,1.717044 2.280199,2.855205 3.572577,0.761431 0.306742,-2.04471 -2.027358,-0.599746 -0.762105,-1.374003 1.336702,-1.150274 1.561839,0.375395 0.423618,-1.741293 -2.308705,-0.364766 -3.346984,1.502965 -9.764759,-1.904067 -1.045787,-2.927139 -2.593357,-0.497696 -0.355843,1.476521 2.196912,0.454609 0.582001,1.666705 -2.144216,2.041999 -1.714664,-0.440768 z"
       id="path850" />
  </g>
</svg>
